<svg version="1.1" id="Layer_1" xmlns="http://www.w3.org/2000/svg" xmlns:xlink="http://www.w3.org/1999/xlink" x="0px" y="0px"
	 width="100%" viewBox="0 0 500 500" enable-background="new 0 0 500 500" xml:space="preserve">
<path fill="#000000" opacity="1.000000" stroke="none" 
	d="
M327.000000,501.000000 
	C218.000031,501.000000 109.500053,501.000000 1.000039,501.000000 
	C1.000000,417.666718 1.000000,334.333435 1.000000,251.000137 
	C1.000000,167.666824 1.000000,84.333511 1.000000,1.000148 
	C167.666565,1.000098 334.333130,1.000098 500.999756,1.000049 
	C500.999847,167.666519 500.999847,334.333038 500.999939,500.999786 
	C443.166656,501.000000 385.333344,501.000000 327.000000,501.000000 
M136.019592,387.582489 
	C136.343567,387.753937 136.667542,387.925385 136.981964,388.025482 
	C136.981964,388.025482 136.911377,388.039581 137.167343,388.620575 
	C137.772217,388.767853 138.377106,388.915131 139.223984,389.710846 
	C152.290054,399.930817 166.418228,408.334473 181.645432,414.954041 
	C198.852142,422.434204 216.858688,427.385864 235.424622,428.731628 
	C258.550354,430.407928 281.496216,428.525452 303.865387,421.094025 
	C328.472900,412.919006 350.935516,401.335175 369.982208,383.541779 
	C380.486664,373.728577 390.861603,364.013702 398.480896,351.407501 
	C406.433197,338.250275 414.178284,325.190704 419.839233,310.794434 
	C427.171478,292.147919 428.935486,272.579376 430.762878,253.039383 
	C431.437775,245.822845 429.943787,238.337234 428.927765,231.045563 
	C427.653870,221.903381 426.525177,212.652451 424.118256,203.778152 
	C420.818817,191.613083 417.112823,179.508392 410.203033,168.648834 
	C406.417755,162.699738 404.099518,155.761276 399.987518,150.089844 
	C394.563782,142.609161 388.332306,135.639725 381.887299,128.994385 
	C375.171204,122.069496 368.034729,115.494057 360.608124,109.337479 
	C355.843231,105.387383 350.406311,102.130074 344.942902,99.166275 
	C335.184631,93.872574 325.387360,88.549377 315.203674,84.176437 
	C308.268707,81.198524 300.739014,79.382149 293.311462,77.830521 
	C283.659546,75.814209 273.845093,74.576027 263.711975,72.198387 
	C256.903870,72.132439 250.095123,71.992538 243.288055,72.049812 
	C241.466858,72.065132 239.650696,72.682457 236.929596,73.004829 
	C229.790421,73.759651 222.474472,73.777748 215.552673,75.438545 
	C204.630386,78.059227 193.635834,80.971199 183.295837,85.263123 
	C172.488281,89.749130 162.063736,95.446640 152.135651,101.673119 
	C143.908981,106.832558 136.630020,113.508904 128.962845,119.553391 
	C117.444077,128.634323 108.122673,139.891907 100.701492,152.256241 
	C93.470497,164.303711 87.575104,177.299759 82.400032,190.395706 
	C76.424294,205.517838 72.711441,221.366043 72.199951,238.250641 
	C72.135475,243.373016 71.945465,248.498032 72.052849,253.616791 
	C72.118950,256.767303 72.639290,259.908295 73.009308,263.974060 
	C73.349159,268.886963 73.057495,273.945709 74.152107,278.684265 
	C76.975029,290.904724 79.432632,303.350006 83.811584,315.040436 
	C92.176193,337.371338 105.033463,357.119934 122.148064,374.638733 
	C122.754326,375.130310 123.360588,375.621887 123.977287,376.015106 
	C123.977287,376.015106 123.878647,376.007477 124.024452,376.563538 
	C124.345787,376.744354 124.667130,376.925171 124.987778,377.010315 
	C124.987778,377.010315 124.892143,377.012695 125.027702,377.567932 
	C125.348053,377.745972 125.668396,377.924011 125.987274,378.009796 
	C125.987274,378.009796 125.895042,378.012909 126.027924,378.568115 
	C126.347832,378.745850 126.667740,378.923584 126.987518,379.011017 
	C126.987518,379.011017 126.897270,379.012909 127.028648,379.569061 
	C127.347458,379.752777 127.666267,379.936493 127.989944,380.015594 
	C127.989944,380.015594 127.885300,380.012634 128.022705,380.571777 
	C128.344040,380.756653 128.665390,380.941528 128.963287,381.037140 
	C128.963287,381.037140 128.875473,381.065582 129.113419,381.684021 
	C129.746613,381.831055 130.379791,381.978058 130.989716,382.013824 
	C130.989716,382.013824 130.878784,382.038818 130.973694,382.748322 
	C131.636444,383.207397 132.299179,383.666504 132.984558,384.019653 
	C132.984558,384.019653 132.878159,383.999451 133.045807,384.548096 
	C133.365952,384.732880 133.686096,384.917664 134.000854,384.993011 
	C134.000854,384.993011 133.891403,384.997772 134.054245,385.540283 
	C134.369293,385.724792 134.684341,385.909302 134.989822,385.997559 
	C134.989822,385.997559 134.893646,386.007660 135.024139,386.564087 
	C135.343933,386.741821 135.663727,386.919556 135.970932,387.009827 
	C135.970932,387.009827 135.883881,387.024963 136.019592,387.582489 
z"/>
<path fill="#75DBFD" opacity="1.000000" stroke="none" 
	d="
M264.100586,73.002937 
	C273.845093,74.576027 283.659546,75.814209 293.311462,77.830521 
	C300.739014,79.382149 308.268707,81.198524 315.203674,84.176437 
	C325.387360,88.549377 335.184631,93.872574 344.942902,99.166275 
	C350.406311,102.130074 355.843231,105.387383 360.608124,109.337479 
	C368.034729,115.494057 375.171204,122.069496 381.887299,128.994385 
	C388.332306,135.639725 394.563782,142.609161 399.987518,150.089844 
	C404.099518,155.761276 406.417755,162.699738 410.203033,168.648834 
	C417.112823,179.508392 420.818817,191.613083 424.118256,203.778152 
	C426.525177,212.652451 427.653870,221.903381 428.927765,231.045563 
	C429.943787,238.337234 431.437775,245.822845 430.762878,253.039383 
	C428.935486,272.579376 427.171478,292.147919 419.839233,310.794434 
	C414.178284,325.190704 406.433197,338.250275 398.480896,351.407501 
	C390.861603,364.013702 380.486664,373.728577 369.982208,383.541779 
	C350.935516,401.335175 328.472900,412.919006 303.865387,421.094025 
	C281.496216,428.525452 258.550354,430.407928 235.424622,428.731628 
	C216.858688,427.385864 198.852142,422.434204 181.645432,414.954041 
	C166.418228,408.334473 152.290054,399.930817 138.907822,389.156433 
	C138.031555,388.414551 137.471466,388.227081 136.911377,388.039581 
	C136.911377,388.039581 136.981964,388.025482 136.877884,387.813599 
	C136.477158,387.409454 136.180527,387.217224 135.883881,387.024963 
	C135.883881,387.024963 135.970932,387.009827 135.861496,386.814331 
	C135.465927,386.415100 135.179779,386.211395 134.893646,386.007660 
	C134.893646,386.007660 134.989822,385.997559 134.859283,385.817596 
	C134.449631,385.424347 134.170532,385.211060 133.891418,384.997742 
	C133.891403,384.997772 134.000854,384.993011 133.860748,384.820953 
	C133.439819,384.432404 133.158997,384.215942 132.878159,383.999451 
	C132.878159,383.999451 132.984558,384.019653 132.927505,383.743042 
	C132.206558,382.990540 131.542679,382.514679 130.878784,382.038818 
	C130.878784,382.038818 130.989716,382.013824 130.811142,381.814941 
	C130.046875,381.432556 129.461182,381.249054 128.875473,381.065552 
	C128.875473,381.065582 128.963287,381.037140 128.853882,380.840271 
	C128.458084,380.433167 128.171692,380.222900 127.885300,380.012634 
	C127.885300,380.012634 127.989944,380.015594 127.871796,379.825439 
	C127.468193,379.427856 127.182732,379.220398 126.897263,379.012909 
	C126.897270,379.012909 126.987518,379.011017 126.869934,378.817169 
	C126.466576,378.419830 126.180809,378.216370 125.895050,378.012909 
	C125.895042,378.012909 125.987274,378.009796 125.868767,377.817322 
	C125.464226,377.420776 125.178185,377.216736 124.892143,377.012695 
	C124.892143,377.012695 124.987778,377.010315 124.868111,376.817047 
	C124.458511,376.418335 124.168579,376.212891 123.878647,376.007477 
	C123.878647,376.007477 123.977287,376.015106 123.911903,375.749939 
	C123.218163,375.016083 122.589798,374.547394 121.961441,374.078705 
	C105.033463,357.119934 92.176193,337.371338 83.811584,315.040436 
	C79.432632,303.350006 76.975029,290.904724 74.152107,278.684265 
	C73.057495,273.945709 73.349159,268.886963 72.990486,263.042603 
	C72.985939,254.029434 73.000206,245.947678 73.014481,237.865936 
	C72.711441,221.366043 76.424294,205.517838 82.400032,190.395706 
	C87.575104,177.299759 93.470497,164.303711 100.701492,152.256241 
	C108.122673,139.891907 117.444077,128.634323 128.962845,119.553391 
	C136.630020,113.508904 143.908981,106.832558 152.135651,101.673119 
	C162.063736,95.446640 172.488281,89.749130 183.295837,85.263123 
	C193.635834,80.971199 204.630386,78.059227 215.552673,75.438545 
	C222.474472,73.777748 229.790421,73.759651 237.862305,73.026352 
	C247.230194,73.032890 255.665390,73.017914 264.100586,73.002937 
M326.835571,135.874649 
	C325.507172,134.893066 324.254211,133.783554 322.838928,132.949356 
	C305.585602,122.779991 287.022095,116.468170 267.144592,113.918083 
	C249.743790,111.685730 232.487991,112.873390 215.815292,117.861847 
	C204.784271,121.162300 194.367477,126.515671 183.059647,131.177719 
	C174.153519,137.805145 164.514008,143.654144 156.487915,151.215652 
	C137.465393,169.137070 123.914780,190.578766 118.223938,217.268036 
	C116.820183,225.934036 114.726791,234.554642 114.152657,243.275269 
	C112.857811,262.942535 115.761284,282.207581 123.370560,300.403503 
	C145.518951,353.366577 185.813934,382.337341 242.580170,387.841949 
	C269.221893,390.425415 294.699951,384.275146 317.810669,370.760468 
	C328.018524,364.791046 336.878082,356.515991 346.884003,348.928009 
	C352.448334,342.560547 358.473755,336.534637 363.490448,329.761566 
	C378.530334,309.456299 386.255005,286.240967 388.514648,261.292206 
	C389.808197,247.010330 389.166168,232.678802 384.968079,217.980240 
	C383.389252,212.940002 381.810455,207.899750 380.085938,202.124100 
	C372.911377,182.024368 361.405029,164.733093 345.640350,150.436859 
	C339.927856,145.256470 333.296417,141.089417 326.835571,135.874649 
z"/>
<path fill="#C2EDFA" opacity="1.000000" stroke="none" 
	d="
M263.906281,72.600662 
	C255.665390,73.017914 247.230194,73.032890 238.313614,73.035637 
	C239.650696,72.682457 241.466858,72.065132 243.288055,72.049812 
	C250.095123,71.992538 256.903870,72.132439 263.906281,72.600662 
z"/>
<path fill="#C1EEFC" opacity="1.000000" stroke="none" 
	d="
M72.607208,238.058289 
	C73.000206,245.947678 72.985939,254.029434 72.963669,262.582367 
	C72.639290,259.908295 72.118950,256.767303 72.052849,253.616791 
	C71.945465,248.498032 72.135475,243.373016 72.607208,238.058289 
z"/>
<path fill="#A6E1F3" opacity="1.000000" stroke="none" 
	d="
M130.926239,382.393555 
	C131.542679,382.514679 132.206558,382.990540 132.916199,383.795990 
	C132.299179,383.666504 131.636444,383.207397 130.926239,382.393555 
z"/>
<path fill="#A6E1F3" opacity="1.000000" stroke="none" 
	d="
M122.054749,374.358704 
	C122.589798,374.547394 123.218163,375.016083 123.906677,375.799133 
	C123.360588,375.621887 122.754326,375.130310 122.054749,374.358704 
z"/>
<path fill="#A6E1F3" opacity="1.000000" stroke="none" 
	d="
M137.039368,388.330078 
	C137.471466,388.227081 138.031555,388.414551 138.786835,388.832214 
	C138.377106,388.915131 137.772217,388.767853 137.039368,388.330078 
z"/>
<path fill="#A6E1F3" opacity="1.000000" stroke="none" 
	d="
M128.994446,381.374786 
	C129.461182,381.249054 130.046875,381.432556 130.822784,381.870575 
	C130.379791,381.978058 129.746613,381.831055 128.994446,381.374786 
z"/>
<path fill="#A6E1F3" opacity="1.000000" stroke="none" 
	d="
M126.962952,379.290985 
	C127.182732,379.220398 127.468193,379.427856 127.869370,379.877747 
	C127.666267,379.936493 127.347458,379.752777 126.962952,379.290985 
z"/>
<path fill="#A6E1F3" opacity="1.000000" stroke="none" 
	d="
M127.954002,380.292206 
	C128.171692,380.222900 128.458084,380.433167 128.865601,380.884918 
	C128.665390,380.941528 128.344040,380.756653 127.954002,380.292206 
z"/>
<path fill="#A6E1F3" opacity="1.000000" stroke="none" 
	d="
M125.961487,378.290527 
	C126.180809,378.216370 126.466576,378.419830 126.869995,378.862305 
	C126.667740,378.923584 126.347832,378.745850 125.961487,378.290527 
z"/>
<path fill="#A6E1F3" opacity="1.000000" stroke="none" 
	d="
M124.959923,377.290314 
	C125.178185,377.216736 125.464226,377.420776 125.869507,377.863403 
	C125.668396,377.924011 125.348053,377.745972 124.959923,377.290314 
z"/>
<path fill="#A6E1F3" opacity="1.000000" stroke="none" 
	d="
M132.961975,384.273773 
	C133.158997,384.215942 133.439819,384.432404 133.863449,384.875671 
	C133.686096,384.917664 133.365952,384.732880 132.961975,384.273773 
z"/>
<path fill="#A6E1F3" opacity="1.000000" stroke="none" 
	d="
M133.972839,385.269012 
	C134.170532,385.211060 134.449631,385.424347 134.864075,385.865723 
	C134.684341,385.909302 134.369293,385.724792 133.972839,385.269012 
z"/>
<path fill="#A6E1F3" opacity="1.000000" stroke="none" 
	d="
M134.958893,386.285889 
	C135.179779,386.211395 135.465927,386.415100 135.867798,386.858063 
	C135.663727,386.919556 135.343933,386.741821 134.958893,386.285889 
z"/>
<path fill="#A6E1F3" opacity="1.000000" stroke="none" 
	d="
M135.951736,387.303711 
	C136.180527,387.217224 136.477158,387.409454 136.882660,387.849274 
	C136.667542,387.925385 136.343567,387.753937 135.951736,387.303711 
z"/>
<path fill="#A6E1F3" opacity="1.000000" stroke="none" 
	d="
M123.951553,376.285522 
	C124.168579,376.212891 124.458511,376.418335 124.868454,376.864868 
	C124.667130,376.925171 124.345787,376.744354 123.951553,376.285522 
z"/>
<path fill="#1AAAE0" opacity="1.000000" stroke="none" 
	d="
M380.231628,202.859512 
	C381.810455,207.899750 383.389252,212.940002 384.497009,218.403412 
	C359.375580,218.843079 334.725159,218.852737 310.074799,218.891434 
	C308.420532,218.894043 306.671387,218.807343 305.127106,219.283524 
	C287.399750,224.749725 280.885956,248.656174 293.130219,262.623932 
	C299.705444,270.124664 308.047852,271.646881 317.461823,271.370941 
	C329.274261,271.024658 334.014618,276.141785 333.979340,288.006317 
	C333.937744,301.996918 334.398285,316.008392 333.768311,329.971405 
	C333.319763,339.912170 336.768463,346.351532 346.349701,349.287659 
	C336.878082,356.515991 328.018524,364.791046 317.810669,370.760468 
	C294.699951,384.275146 269.221893,390.425415 242.580170,387.841949 
	C185.813934,382.337341 145.518951,353.366577 123.370560,300.403503 
	C115.761284,282.207581 112.857811,262.942535 114.152657,243.275269 
	C114.726791,234.554642 116.820183,225.934036 118.613800,217.327087 
	C119.601936,219.111435 120.118408,220.870453 120.812889,222.556122 
	C123.565224,229.236679 125.674484,236.306076 129.308685,242.473175 
	C136.475189,254.634445 148.623306,260.236023 161.431290,264.575592 
	C172.683594,268.388123 180.502747,276.281036 184.873840,286.886627 
	C187.597473,293.494965 188.186401,300.996368 189.622208,308.119354 
	C192.138351,320.601929 194.162201,333.201599 197.196075,345.554810 
	C198.876358,352.396545 201.705704,359.082367 204.909821,365.384613 
	C207.601410,370.678772 215.392899,373.776947 220.233017,372.700043 
	C226.577591,371.288483 231.136703,367.779144 232.717392,361.285980 
	C234.875519,352.420715 236.518707,343.420898 238.959305,334.639069 
	C239.720062,331.901672 241.853958,328.959717 244.206711,327.350159 
	C255.749237,319.453888 263.066071,308.793579 266.553406,295.370667 
	C269.577850,283.729462 260.859497,270.828705 247.873459,270.925964 
	C244.897247,270.948273 241.127991,269.314240 239.046219,267.162781 
	C227.783981,255.523743 214.055069,251.341751 198.284760,252.105988 
	C195.551865,252.238434 192.582703,251.701233 190.034454,250.688675 
	C180.554840,246.921967 174.720932,237.686172 175.292938,227.984467 
	C175.858917,218.384918 182.743088,209.934006 192.619431,207.066422 
	C200.634598,204.739227 208.432709,201.922699 211.177444,193.083237 
	C213.027466,187.125320 214.144302,180.860107 214.848022,174.648392 
	C215.543869,168.506104 217.876053,165.593399 223.999802,165.091171 
	C228.643478,164.710312 233.341187,164.573837 237.905228,163.733383 
	C244.749146,162.473083 249.552994,155.577393 249.579971,147.748505 
	C249.604004,140.777023 244.651749,133.564316 237.960022,132.870346 
	C228.565414,131.896072 219.050537,132.079117 209.586899,131.773514 
	C200.949982,131.494614 192.312775,131.224136 183.675705,130.949951 
	C194.367477,126.515671 204.784271,121.162300 215.815292,117.861847 
	C232.487991,112.873390 249.743790,111.685730 267.144592,113.918083 
	C287.022095,116.468170 305.585602,122.779991 322.838928,132.949356 
	C324.254211,133.783554 325.507172,134.893066 326.907928,136.679962 
	C326.909821,143.471802 326.808929,149.458145 326.776245,155.444870 
	C326.730408,163.835938 324.220306,167.453323 316.376404,170.292908 
	C306.310516,173.936874 302.943817,179.950027 304.839569,190.898544 
	C305.936981,197.236496 313.724518,202.897293 321.837799,202.920807 
	C341.302155,202.977264 360.766998,202.889236 380.231628,202.859512 
z"/>
<path fill="#68C01F" opacity="1.000000" stroke="none" 
	d="
M183.367676,131.063843 
	C192.312775,131.224136 200.949982,131.494614 209.586899,131.773514 
	C219.050537,132.079117 228.565414,131.896072 237.960022,132.870346 
	C244.651749,133.564316 249.604004,140.777023 249.579971,147.748505 
	C249.552994,155.577393 244.749146,162.473083 237.905228,163.733383 
	C233.341187,164.573837 228.643478,164.710312 223.999802,165.091171 
	C217.876053,165.593399 215.543869,168.506104 214.848022,174.648392 
	C214.144302,180.860107 213.027466,187.125320 211.177444,193.083237 
	C208.432709,201.922699 200.634598,204.739227 192.619431,207.066422 
	C182.743088,209.934006 175.858917,218.384918 175.292938,227.984467 
	C174.720932,237.686172 180.554840,246.921967 190.034454,250.688675 
	C192.582703,251.701233 195.551865,252.238434 198.284760,252.105988 
	C214.055069,251.341751 227.783981,255.523743 239.046219,267.162781 
	C241.127991,269.314240 244.897247,270.948273 247.873459,270.925964 
	C260.859497,270.828705 269.577850,283.729462 266.553406,295.370667 
	C263.066071,308.793579 255.749237,319.453888 244.206711,327.350159 
	C241.853958,328.959717 239.720062,331.901672 238.959305,334.639069 
	C236.518707,343.420898 234.875519,352.420715 232.717392,361.285980 
	C231.136703,367.779144 226.577591,371.288483 220.233017,372.700043 
	C215.392899,373.776947 207.601410,370.678772 204.909821,365.384613 
	C201.705704,359.082367 198.876358,352.396545 197.196075,345.554810 
	C194.162201,333.201599 192.138351,320.601929 189.622208,308.119354 
	C188.186401,300.996368 187.597473,293.494965 184.873840,286.886627 
	C180.502747,276.281036 172.683594,268.388123 161.431290,264.575592 
	C148.623306,260.236023 136.475189,254.634445 129.308685,242.473175 
	C125.674484,236.306076 123.565224,229.236679 120.812889,222.556122 
	C120.118408,220.870453 119.601936,219.111435 118.812927,217.003601 
	C123.914780,190.578766 137.465393,169.137070 156.487915,151.215652 
	C164.514008,143.654144 174.153519,137.805145 183.367676,131.063843 
z"/>
<path fill="#68C01F" opacity="1.000000" stroke="none" 
	d="
M346.616852,349.107819 
	C336.768463,346.351532 333.319763,339.912170 333.768311,329.971405 
	C334.398285,316.008392 333.937744,301.996918 333.979340,288.006317 
	C334.014618,276.141785 329.274261,271.024658 317.461823,271.370941 
	C308.047852,271.646881 299.705444,270.124664 293.130219,262.623932 
	C280.885956,248.656174 287.399750,224.749725 305.127106,219.283524 
	C306.671387,218.807343 308.420532,218.894043 310.074799,218.891434 
	C334.725159,218.852737 359.375580,218.843079 384.487549,218.790771 
	C389.166168,232.678802 389.808197,247.010330 388.514648,261.292206 
	C386.255005,286.240967 378.530334,309.456299 363.490448,329.761566 
	C358.473755,336.534637 352.448334,342.560547 346.616852,349.107819 
z"/>
<path fill="#68C021" opacity="1.000000" stroke="none" 
	d="
M380.158783,202.491806 
	C360.766998,202.889236 341.302155,202.977264 321.837799,202.920807 
	C313.724518,202.897293 305.936981,197.236496 304.839569,190.898544 
	C302.943817,179.950027 306.310516,173.936874 316.376404,170.292908 
	C324.220306,167.453323 326.730408,163.835938 326.776245,155.444870 
	C326.808929,149.458145 326.909821,143.471802 327.032288,136.972641 
	C333.296417,141.089417 339.927856,145.256470 345.640350,150.436859 
	C361.405029,164.733093 372.911377,182.024368 380.158783,202.491806 
z"/>
</svg>