<svg version="1.1" id="Layer_1" xmlns="http://www.w3.org/2000/svg" xmlns:xlink="http://www.w3.org/1999/xlink" x="0px" y="0px"
	 width="100%" viewBox="0 0 1024 1024" enable-background="new 0 0 1024 1024" xml:space="preserve">
<path fill="#FFFFFF" opacity="1.000000" stroke="none" 
	d="
M681.000000,1025.000000 
	C454.000000,1025.000000 227.500000,1025.000000 1.000000,1025.000000 
	C1.000000,683.666687 1.000000,342.333344 1.000000,1.000000 
	C342.333344,1.000000 683.666687,1.000000 1025.000000,1.000000 
	C1025.000000,342.333344 1025.000000,683.666687 1025.000000,1025.000000 
	C910.500000,1025.000000 796.000000,1025.000000 681.000000,1025.000000 
M523.017700,147.997314 
	C516.034302,148.032059 509.050934,148.066803 501.141724,147.975983 
	C490.202393,148.682495 479.203796,148.892517 468.335114,150.190552 
	C438.228424,153.786179 408.923096,160.814423 380.631256,171.885147 
	C320.372070,195.464828 269.136383,231.714813 228.074127,281.768250 
	C195.118530,321.939972 172.780960,367.649963 159.736176,417.946350 
	C152.238556,446.854645 148.103027,476.175568 148.009720,506.981659 
	C148.039825,513.299194 148.069916,519.616699 147.987701,526.850098 
	C148.905060,547.784058 151.287598,568.518494 155.722626,589.032410 
	C175.572159,680.845032 224.356689,753.694946 300.632294,807.882263 
	C344.625275,839.135498 393.266571,860.706543 446.651428,870.258667 
	C463.255493,873.229675 480.235229,874.101135 497.968872,876.030701 
	C510.285339,875.979126 522.601807,875.927551 535.808960,875.987976 
	C544.078430,875.260193 552.397461,874.887024 560.608398,873.740051 
	C588.155029,869.892090 614.946228,863.091797 641.003601,853.224426 
	C699.573364,831.045410 749.767456,796.726440 790.781128,749.436401 
	C827.864258,706.678345 854.025085,657.890991 867.466797,602.765381 
	C871.695679,585.422546 873.822693,567.567261 877.013855,549.238281 
	C877.004150,547.495667 876.994385,545.753113 877.038696,543.221680 
	C877.054443,542.167786 877.070190,541.113892 877.706116,539.509827 
	C877.768738,536.363159 877.831360,533.216553 878.016113,529.275879 
	C878.040100,528.205200 878.064087,527.134521 878.670105,525.546570 
	C878.730042,523.711853 878.789978,521.877075 878.996399,519.152649 
	C878.966431,516.748901 878.936462,514.345093 878.986023,511.023773 
	C878.680176,506.332306 878.374329,501.640808 878.051697,496.274139 
	C877.999634,495.827728 877.947571,495.381317 877.985168,494.034943 
	C877.947327,490.717865 877.909485,487.400787 877.982239,483.204285 
	C876.698975,472.499756 875.677917,461.756073 874.084778,451.097870 
	C868.661865,414.818726 857.352783,380.360596 841.041687,347.566498 
	C821.483521,308.244141 795.174194,273.992737 762.959839,244.158127 
	C739.724121,222.638931 713.992554,204.699936 685.992126,190.092697 
	C652.493591,172.617264 617.271545,159.683441 579.834717,153.881638 
	C561.348389,151.016708 542.580994,149.964859 523.017700,147.997314 
z"/>
<path fill="#74DCFF" opacity="1.000000" stroke="none" 
	d="
M878.906372,511.941345 
	C878.936462,514.345093 878.966431,516.748901 878.570190,519.669556 
	C878.125366,522.145630 878.106750,524.104736 878.088135,526.063843 
	C878.064087,527.134521 878.040100,528.205200 877.684937,529.945312 
	C877.264526,533.763123 877.175232,536.911560 877.085938,540.059998 
	C877.070190,541.113892 877.054443,542.167786 876.735596,543.854736 
	C876.592285,546.307434 876.752075,548.126953 876.911865,549.946533 
	C873.822693,567.567261 871.695679,585.422546 867.466797,602.765381 
	C854.025085,657.890991 827.864258,706.678345 790.781128,749.436401 
	C749.767456,796.726440 699.573364,831.045410 641.003601,853.224426 
	C614.946228,863.091797 588.155029,869.892090 560.608398,873.740051 
	C552.397461,874.887024 544.078430,875.260193 535.065186,875.655212 
	C522.457947,875.228210 510.594421,875.121582 498.730682,875.078247 
	C498.169159,875.076172 497.605591,875.635803 497.042969,875.933777 
	C480.235229,874.101135 463.255493,873.229675 446.651428,870.258667 
	C393.266571,860.706543 344.625275,839.135498 300.632294,807.882263 
	C224.356689,753.694946 175.572159,680.845032 155.722626,589.032410 
	C151.287598,568.518494 148.905060,547.784058 148.327698,526.097290 
	C148.475601,518.915527 148.283493,512.486511 148.091400,506.057465 
	C148.103027,476.175568 152.238556,446.854645 159.736176,417.946350 
	C172.780960,367.649963 195.118530,321.939972 228.074127,281.768250 
	C269.136383,231.714813 320.372070,195.464828 380.631256,171.885147 
	C408.923096,160.814423 438.228424,153.786179 468.335114,150.190552 
	C479.203796,148.892517 490.202393,148.682495 501.901062,148.320129 
	C509.753876,148.473724 516.847351,148.283188 523.940796,148.092636 
	C542.580994,149.964859 561.348389,151.016708 579.834717,153.881638 
	C617.271545,159.683441 652.493591,172.617264 685.992126,190.092697 
	C713.992554,204.699936 739.724121,222.638931 762.959839,244.158127 
	C795.174194,273.992737 821.483521,308.244141 841.041687,347.566498 
	C857.352783,380.360596 868.661865,414.818726 874.084778,451.097870 
	C875.677917,461.756073 876.698975,472.499756 877.655273,483.930969 
	C877.517334,488.083435 877.706421,491.509155 877.895508,494.934906 
	C877.947571,495.381317 877.999634,495.827728 877.760132,496.883728 
	C877.947876,502.309296 878.427124,507.125336 878.906372,511.941345 
M778.002197,413.282379 
	C777.619629,412.536896 777.237061,411.791412 776.811523,410.325256 
	C767.263611,386.671661 755.374451,364.330841 740.020020,343.875183 
	C721.082092,318.645569 698.686279,297.089111 672.384644,279.514404 
	C672.384644,279.514404 672.308411,279.498230 671.998840,279.018646 
	C671.332642,278.717285 670.666504,278.415924 669.401794,278.016479 
	C668.997559,278.006653 668.593262,277.996826 668.072327,277.505493 
	C668.072327,277.505493 667.968506,277.021027 667.741577,276.379456 
	C667.504822,276.145660 667.301697,275.858246 667.026611,275.685669 
	C617.615845,244.687210 564.021667,229.126328 505.428131,230.856705 
	C481.160278,231.573395 457.534180,235.297073 434.305695,241.984467 
	C414.275848,247.750977 395.016327,255.445343 376.233521,265.976562 
	C374.745819,266.924744 373.258087,267.872925 371.091003,268.984863 
	C370.343079,269.334564 369.548462,269.609711 368.853851,270.044617 
	C312.724945,305.188049 272.213623,353.229523 249.075867,415.506317 
	C246.505554,422.424500 244.938568,429.715454 242.410477,437.412109 
	C234.465942,467.487701 230.889191,497.983765 232.864365,529.126648 
	C234.526093,555.327515 239.538177,580.782349 248.237686,605.539307 
	C260.987427,641.822388 280.188568,674.293518 306.259796,702.542908 
	C335.133942,733.829407 369.194275,757.789062 408.934113,773.406921 
	C449.438904,789.325378 491.254852,796.622742 534.863464,793.176025 
	C560.722839,791.132141 585.771973,785.768494 610.072327,776.856384 
	C647.629395,763.082275 680.947144,742.548462 709.786499,713.769348 
	C720.152832,701.861206 731.314880,690.547363 740.735840,677.933167 
	C768.657471,640.547424 785.722656,598.507202 792.075378,552.209717 
	C794.875305,531.804504 796.507935,511.341187 794.035156,490.778534 
	C792.437134,477.489471 790.555847,464.234467 788.813965,450.310272 
	C788.505615,449.263885 788.197205,448.217499 787.946533,446.627502 
	C787.928894,446.446838 787.911194,446.266144 787.875000,445.561035 
	C787.830322,445.391937 787.785645,445.222809 787.602905,444.320740 
	C784.503723,434.509766 781.404541,424.698792 778.157410,414.404297 
	C778.113586,414.241608 778.069763,414.078888 778.002197,413.282379 
z"/>
<path fill="#55D4FF" opacity="1.000000" stroke="none" 
	d="
M497.505920,875.982239 
	C497.605591,875.635803 498.169159,875.076172 498.730682,875.078247 
	C510.594421,875.121582 522.457947,875.228210 534.619873,875.599243 
	C522.601807,875.927551 510.285339,875.979126 497.505920,875.982239 
z"/>
<path fill="#55D4FF" opacity="1.000000" stroke="none" 
	d="
M523.479248,148.044983 
	C516.847351,148.283188 509.753876,148.473724 502.364014,148.382904 
	C509.050934,148.066803 516.034302,148.032059 523.479248,148.044983 
z"/>
<path fill="#55D4FF" opacity="1.000000" stroke="none" 
	d="
M878.946167,511.482544 
	C878.427124,507.125336 877.947876,502.309296 877.768494,497.221313 
	C878.374329,501.640808 878.680176,506.332306 878.946167,511.482544 
z"/>
<path fill="#55D4FF" opacity="1.000000" stroke="none" 
	d="
M148.050568,506.519562 
	C148.283493,512.486511 148.475601,518.915527 148.383850,525.639404 
	C148.069916,519.616699 148.039825,513.299194 148.050568,506.519562 
z"/>
<path fill="#55D4FF" opacity="1.000000" stroke="none" 
	d="
M878.379150,525.805176 
	C878.106750,524.104736 878.125366,522.145630 878.496948,520.114441 
	C878.789978,521.877075 878.730042,523.711853 878.379150,525.805176 
z"/>
<path fill="#55D4FF" opacity="1.000000" stroke="none" 
	d="
M877.395996,539.784912 
	C877.175232,536.911560 877.264526,533.763123 877.623840,530.342285 
	C877.831360,533.216553 877.768738,536.363159 877.395996,539.784912 
z"/>
<path fill="#55D4FF" opacity="1.000000" stroke="none" 
	d="
M877.940308,494.484924 
	C877.706421,491.509155 877.517334,488.083435 877.599976,484.370697 
	C877.909485,487.400787 877.947327,490.717865 877.940308,494.484924 
z"/>
<path fill="#55D4FF" opacity="1.000000" stroke="none" 
	d="
M876.962891,549.592407 
	C876.752075,548.126953 876.592285,546.307434 876.708618,544.249146 
	C876.994385,545.753113 877.004150,547.495667 876.962891,549.592407 
z"/>
<path fill="#19ABE4" opacity="1.000000" stroke="none" 
	d="
M709.242554,714.107361 
	C680.947144,742.548462 647.629395,763.082275 610.072327,776.856384 
	C585.771973,785.768494 560.722839,791.132141 534.863464,793.176025 
	C491.254852,796.622742 449.438904,789.325378 408.934113,773.406921 
	C369.194275,757.789062 335.133942,733.829407 306.259796,702.542908 
	C280.188568,674.293518 260.987427,641.822388 248.237686,605.539307 
	C239.538177,580.782349 234.526093,555.327515 232.864365,529.126648 
	C230.889191,497.983765 234.465942,467.487701 242.823090,437.516052 
	C244.355453,444.493439 244.881775,451.527649 246.692902,458.213837 
	C257.105103,496.652832 279.768494,524.062561 318.681335,536.154053 
	C344.377228,544.138550 364.161987,559.134521 376.664948,583.227173 
	C381.929291,593.371277 383.757904,604.324646 385.430878,615.556580 
	C388.671814,637.315430 393.184509,658.882385 396.992645,680.559937 
	C400.741852,701.902161 406.058624,722.767029 415.362091,742.432617 
	C419.701385,751.605042 426.739685,757.835327 436.633789,760.671509 
	C453.886780,765.617126 471.194794,756.244263 474.954834,739.962891 
	C479.624481,719.742737 484.239868,699.507324 489.264557,679.374817 
	C489.975433,676.526428 492.318817,673.264465 494.838531,671.823303 
	C509.812195,663.259521 521.610474,651.510681 530.628357,637.003601 
	C540.105164,621.758301 547.765259,605.873230 545.108154,587.010681 
	C542.944946,571.653992 533.983337,561.877502 520.070190,556.206238 
	C517.192871,555.033325 513.862183,553.860046 510.907135,554.188171 
	C499.583405,555.445557 491.643219,549.894287 484.076721,542.559998 
	C466.547089,525.568420 445.790771,515.919800 421.025604,515.757507 
	C413.389618,515.707458 405.659119,516.074646 398.138947,515.038452 
	C377.035919,512.130737 361.042664,495.316071 358.091370,473.799622 
	C355.490509,454.838013 366.683258,434.746735 385.165375,426.269928 
	C392.220154,423.034241 399.732513,420.717194 407.171967,418.420898 
	C415.014832,416.000122 421.541443,411.656982 425.506531,404.680176 
	C429.651215,397.387329 433.656860,389.693939 435.780853,381.661957 
	C438.037964,373.126526 438.353668,364.008911 438.899750,355.107605 
	C439.547150,344.554199 444.219208,338.650208 454.634583,337.371002 
	C463.512634,336.280640 472.447632,335.348755 481.379425,335.082153 
	C491.479980,334.780670 498.872559,330.308350 504.107422,322.060486 
	C517.071350,301.634918 507.756561,275.827026 484.777344,269.136169 
	C481.422668,268.170959 478.226379,267.087555 475.025696,267.074310 
	C444.160187,266.946594 413.293884,267.019836 382.428040,266.947968 
	C380.574066,266.943665 378.721832,266.191895 376.868805,265.787964 
	C395.016327,255.445343 414.275848,247.750977 434.305695,241.984467 
	C457.534180,235.297073 481.160278,231.573395 505.428131,230.856705 
	C564.021667,229.126328 617.615845,244.687210 667.026611,275.685669 
	C667.301697,275.858246 667.504822,276.145660 667.561035,276.992798 
	C667.265503,293.481476 667.141418,309.356781 667.072693,325.232330 
	C667.070251,325.801270 667.614014,326.372559 667.951416,327.278412 
	C667.624573,328.419037 667.249512,329.224030 666.718750,330.107727 
	C666.504578,330.286011 666.372620,330.436005 666.400452,330.476440 
	C666.524292,330.657043 666.693787,330.806274 666.832947,331.287689 
	C666.298401,332.727539 665.777710,333.846558 665.056641,335.250854 
	C661.322205,341.299042 656.169617,344.826385 649.746399,346.747711 
	C646.776123,347.636169 643.916443,348.894318 640.663574,350.024353 
	C638.766846,351.012177 637.213135,351.960571 635.457642,352.940552 
	C635.255859,352.972168 634.963623,353.257538 634.705627,353.345917 
	C633.955017,353.953522 633.462402,354.472717 632.738892,355.066406 
	C632.207275,355.317902 632.031799,355.579010 631.742798,356.025452 
	C631.318115,356.411804 631.132202,356.696930 630.973145,356.991028 
	C630.999939,357.000031 630.980713,356.946960 630.745178,357.047546 
	C630.327515,357.427490 630.145447,357.706848 629.982544,357.992859 
	C630.001770,357.999451 629.978943,357.965729 629.708130,358.120972 
	C628.897461,359.147491 628.357605,360.018799 627.861023,360.918365 
	C627.904297,360.946655 627.937744,360.848816 627.684509,360.942078 
	C627.302734,361.360046 627.174133,361.684784 627.017578,362.016449 
	C626.989685,362.023407 627.024475,362.069275 626.822510,362.266174 
	C626.407349,362.973846 626.194092,363.484650 625.991943,363.996460 
	C626.003113,363.997498 625.989380,363.978668 625.721863,364.214722 
	C620.684204,375.581604 619.473206,386.562378 626.851379,397.134949 
	C626.868530,397.088165 626.769958,397.103271 626.807312,397.427826 
	C627.503235,398.566956 628.161804,399.381561 628.852112,400.155426 
	C628.883850,400.114685 628.780701,400.109528 628.828125,400.408325 
	C629.205994,400.876434 629.536438,401.045776 629.862915,401.157959 
	C629.859009,401.100800 629.758484,401.155762 629.778442,401.468018 
	C630.148193,401.930939 630.497925,402.081635 630.833862,402.164124 
	C630.820068,402.095947 630.702393,402.170166 630.676392,402.478577 
	C631.088684,403.210541 631.526917,403.634125 631.982239,404.031281 
	C631.999329,404.004852 631.939148,404.023285 632.031128,404.264404 
	C632.412415,404.675323 632.701721,404.845123 632.995483,405.007446 
	C633.000000,405.000000 632.986267,405.011505 633.141052,405.269928 
	C633.839111,405.754730 634.382446,405.981110 634.909302,406.154266 
	C634.892944,406.101044 634.805176,406.169617 634.935913,406.466827 
	C636.008057,407.254669 636.949524,407.745331 637.896545,408.183533 
	C637.902161,408.131104 637.810913,408.184052 637.959961,408.484558 
	C639.735291,409.535919 641.361572,410.286743 642.991577,411.016418 
	C642.995361,410.995209 642.961487,411.021912 643.194458,411.277985 
	C645.290710,412.327942 647.153870,413.121857 649.240356,414.212036 
	C651.310242,415.006531 653.156921,415.504700 654.866211,416.057007 
	C654.818298,416.072784 654.907715,416.034515 655.408752,415.995331 
	C658.861816,415.381836 661.903320,414.769287 665.405640,414.089172 
	C669.596619,414.068298 673.326660,414.114960 677.268799,414.396912 
	C678.634583,414.475708 679.788330,414.319244 681.402954,414.094177 
	C685.594910,414.071045 689.326050,414.116516 693.269531,414.396606 
	C694.635254,414.475403 695.788452,414.319580 697.393250,414.095520 
	C700.580750,414.071136 703.316711,414.115021 706.234497,414.384125 
	C707.259216,414.460266 708.102112,414.311188 709.403198,414.093933 
	C713.255249,414.071350 716.648987,414.116882 720.123047,414.311005 
	C720.454224,414.361328 720.705078,414.263092 721.386841,414.096436 
	C723.559753,414.073364 725.301636,414.118744 727.123901,414.311890 
	C727.454407,414.361938 727.704529,414.264191 728.421570,414.097412 
	C741.939758,413.963409 754.991028,413.898438 768.270264,413.872559 
	C768.498230,413.911682 768.953979,413.832672 769.231934,413.913879 
	C769.694885,414.050171 769.879944,414.105286 770.360962,414.425049 
	C773.206421,414.755768 775.755920,414.821777 778.305420,414.887817 
	C781.404541,424.698792 784.503723,434.509766 787.226929,444.668945 
	C736.169312,445.014801 685.487488,444.979248 634.806091,445.106018 
	C632.217407,445.112488 629.632202,446.513611 627.014160,447.641602 
	C610.888062,451.334412 600.400513,461.853119 591.898499,474.953491 
	C591.161865,475.905823 590.624634,477.082886 590.092590,478.453461 
	C590.097717,478.646942 589.959717,479.008575 589.598633,479.074158 
	C588.881714,479.463562 588.365295,479.718903 588.193542,480.121277 
	C584.077087,489.762482 584.934570,499.948639 585.083130,510.034973 
	C585.097778,511.028900 586.259521,512.005981 586.939087,513.217468 
	C586.989441,513.444092 587.040222,513.905579 586.906738,514.221680 
	C587.717712,516.683655 588.662231,518.829407 589.785645,521.300659 
	C599.617981,542.250183 614.887207,554.741211 638.509216,555.065552 
	C644.485474,555.147583 650.492798,554.705322 656.435181,555.162476 
	C668.969727,556.126831 678.106323,560.828491 681.562622,574.366943 
	C681.244202,574.836426 681.148682,574.994751 681.148438,575.153198 
	C681.093689,612.752625 681.023132,650.352051 681.089478,687.951233 
	C681.091858,689.283142 682.452759,690.612671 683.376343,691.966553 
	C683.572205,691.989868 683.960266,692.060730 683.981812,692.268433 
	C684.003418,692.476135 684.037109,692.892334 683.908936,693.203369 
	C684.474060,695.020142 685.167480,696.525940 686.163452,698.193726 
	C687.988220,700.479736 689.366089,702.727356 691.060059,704.704041 
	C695.829712,710.269775 702.735474,711.829285 709.242554,714.107361 
z"/>
<path fill="#6AC01B" opacity="1.000000" stroke="none" 
	d="
M484.933685,269.514557 
	C507.756561,275.827026 517.071350,301.634918 504.107422,322.060486 
	C498.872559,330.308350 491.479980,334.780670 481.379425,335.082153 
	C472.447632,335.348755 463.512634,336.280640 454.634583,337.371002 
	C444.219208,338.650208 439.547150,344.554199 438.899750,355.107605 
	C438.353668,364.008911 438.037964,373.126526 435.780853,381.661957 
	C433.656860,389.693939 429.651215,397.387329 425.506531,404.680176 
	C421.541443,411.656982 415.014832,416.000122 407.171967,418.420898 
	C399.732513,420.717194 392.220154,423.034241 385.165375,426.269928 
	C366.683258,434.746735 355.490509,454.838013 358.091370,473.799622 
	C361.042664,495.316071 377.035919,512.130737 398.138947,515.038452 
	C405.659119,516.074646 413.389618,515.707458 421.025604,515.757507 
	C445.790771,515.919800 466.547089,525.568420 484.076721,542.559998 
	C491.643219,549.894287 499.583405,555.445557 510.907135,554.188171 
	C513.862183,553.860046 517.192871,555.033325 520.070190,556.206238 
	C533.983337,561.877502 542.944946,571.653992 545.108154,587.010681 
	C547.765259,605.873230 540.105164,621.758301 530.628357,637.003601 
	C521.610474,651.510681 509.812195,663.259521 494.838531,671.823303 
	C492.318817,673.264465 489.975433,676.526428 489.264557,679.374817 
	C484.239868,699.507324 479.624481,719.742737 474.954834,739.962891 
	C471.194794,756.244263 453.886780,765.617126 436.633789,760.671509 
	C426.739685,757.835327 419.701385,751.605042 415.362091,742.432617 
	C406.058624,722.767029 400.741852,701.902161 396.992645,680.559937 
	C393.184509,658.882385 388.671814,637.315430 385.430878,615.556580 
	C383.757904,604.324646 381.929291,593.371277 376.664948,583.227173 
	C364.161987,559.134521 344.377228,544.138550 318.681335,536.154053 
	C279.768494,524.062561 257.105103,496.652832 246.692902,458.213837 
	C244.881775,451.527649 244.355453,444.493439 243.070984,437.226746 
	C244.938568,429.715454 246.505554,422.424500 249.075867,415.506317 
	C272.213623,353.229523 312.724945,305.188049 368.853851,270.044617 
	C369.548462,269.609711 370.343079,269.334564 371.875854,268.954712 
	C374.123505,268.998230 375.586304,269.071899 377.355469,269.420380 
	C378.311615,269.797516 378.961334,269.989105 379.611145,269.989441 
	C411.807831,270.004852 444.004486,270.013397 476.201111,269.968719 
	C477.448395,269.966980 478.694946,269.436920 480.356079,269.078125 
	C482.158142,269.173615 483.545898,269.344086 484.933685,269.514557 
z"/>
<path fill="#6AC01A" opacity="1.000000" stroke="none" 
	d="
M587.040222,513.905579 
	C587.040222,513.905579 586.989441,513.444092 587.011597,512.786499 
	C586.700439,509.011810 585.778625,505.822968 586.148010,502.791443 
	C587.118408,494.827271 588.651062,486.931549 589.959717,479.008575 
	C589.959717,479.008575 590.097717,478.646942 590.376282,478.303680 
	C591.135864,477.033020 591.616882,476.105621 592.097961,475.178223 
	C600.400513,461.853119 610.888062,451.334412 627.386475,447.607117 
	C628.532654,447.183472 629.275330,447.170563 630.086731,447.478455 
	C632.552185,447.865845 634.948792,447.989929 637.345459,447.990479 
	C684.963440,448.000977 732.581543,448.021057 780.199402,447.945129 
	C783.545471,447.939789 786.610657,448.014160 788.801514,450.964203 
	C790.555847,464.234467 792.437134,477.489471 794.035156,490.778534 
	C796.507935,511.341187 794.875305,531.804504 792.075378,552.209717 
	C785.722656,598.507202 768.657471,640.547424 740.735840,677.933167 
	C731.314880,690.547363 720.152832,701.861206 709.514526,713.938354 
	C702.735474,711.829285 695.829712,710.269775 691.060059,704.704041 
	C689.366089,702.727356 687.988220,700.479736 686.066772,697.850830 
	C685.124023,695.861389 684.580566,694.376831 684.037109,692.892334 
	C684.037109,692.892334 684.003418,692.476135 683.994568,691.796509 
	C683.991272,654.184326 684.018616,617.251587 683.935059,580.319153 
	C683.931091,578.564026 682.944702,576.811096 682.274902,574.919373 
	C682.060425,574.528015 681.959106,574.286072 681.829956,574.055847 
	C678.106323,560.828491 668.969727,556.126831 656.435181,555.162476 
	C650.492798,554.705322 644.485474,555.147583 638.509216,555.065552 
	C614.887207,554.741211 599.617981,542.250183 589.697754,520.964722 
	C588.634033,518.170715 587.837097,516.038147 587.040222,513.905579 
z"/>
<path fill="#6AC01A" opacity="1.000000" stroke="none" 
	d="
M634.963623,353.257568 
	C634.963623,353.257538 635.255859,352.972168 635.850464,352.964661 
	C637.965576,351.966431 639.486084,350.975647 641.006592,349.984863 
	C643.916443,348.894318 646.776123,347.636169 649.746399,346.747711 
	C656.169617,344.826385 661.322205,341.299042 665.401245,335.198181 
	C667.297241,331.172852 669.670471,327.524567 669.813538,323.790833 
	C670.300903,311.072601 669.894653,298.322357 670.113342,285.589203 
	C670.148254,283.557617 671.641418,281.551056 672.460449,279.532898 
	C698.686279,297.089111 721.082092,318.645569 740.020020,343.875183 
	C755.374451,364.330841 767.263611,386.671661 776.554688,410.816467 
	C775.537231,412.159790 774.776672,413.011932 773.626282,413.940552 
	C772.179260,414.064850 771.122131,414.112640 770.064941,414.160400 
	C769.879944,414.105286 769.694885,414.050171 769.151123,413.766602 
	C768.542358,413.636597 768.292358,413.735046 768.042297,413.833466 
	C754.991028,413.898438 741.939758,413.963409 728.193909,414.057800 
	C727.499329,414.087189 727.043579,414.164093 727.043579,414.164093 
	C725.301636,414.118744 723.559753,414.073364 721.158691,414.057037 
	C720.499573,414.086090 720.042786,414.162445 720.042786,414.162445 
	C716.648987,414.116882 713.255249,414.071350 709.043274,414.046509 
	C707.500977,414.097778 706.776794,414.128357 706.052673,414.158936 
	C703.316711,414.115021 700.580750,414.071136 697.006592,414.047607 
	C695.131287,414.099274 694.094177,414.130646 693.057129,414.161987 
	C689.326050,414.116516 685.594910,414.071045 681.016113,414.046814 
	C679.131226,414.099274 678.093994,414.130463 677.056763,414.161652 
	C673.326660,414.114960 669.596619,414.068298 664.979980,414.040771 
	C662.382385,413.997772 660.671265,413.935577 658.727356,413.624084 
	C657.011292,413.535767 655.527954,413.696716 653.640564,413.917908 
	C652.151611,413.935364 651.066833,413.892578 649.934814,413.478760 
	C647.578979,412.412445 645.270203,411.717194 642.961487,411.021912 
	C642.961487,411.021912 642.995361,410.995209 642.848145,410.694885 
	C641.070984,409.657715 639.440918,408.920868 637.810913,408.184021 
	C637.810913,408.184052 637.902161,408.131104 637.810303,407.843201 
	C636.747375,407.093414 635.776245,406.631531 634.805176,406.169617 
	C634.805176,406.169617 634.892944,406.101044 634.789429,405.864746 
	C634.119385,405.422791 633.552856,405.217163 632.986267,405.011505 
	C632.986267,405.011505 633.000000,405.000000 632.883423,404.782715 
	C632.490906,404.384735 632.215027,404.204010 631.939148,404.023285 
	C631.939148,404.023285 631.999329,404.004852 631.964478,403.710388 
	C631.520508,403.000671 631.111450,402.585419 630.702393,402.170166 
	C630.702393,402.170166 630.820068,402.095947 630.771118,401.884827 
	C630.400940,401.501038 630.079712,401.328400 629.758484,401.155762 
	C629.758484,401.155762 629.859009,401.100800 629.792603,400.882812 
	C629.411072,400.479767 629.095886,400.294647 628.780701,400.109528 
	C628.780701,400.109528 628.883850,400.114685 628.891113,399.804688 
	C628.188843,398.697540 627.479431,397.900421 626.769958,397.103271 
	C626.769958,397.103271 626.868530,397.088165 626.904175,396.736389 
	C626.640564,395.291016 626.479065,394.135437 626.019653,393.113861 
	C622.730835,385.800385 622.010986,378.376343 624.605347,370.670471 
	C625.326843,368.527466 625.541931,366.213959 625.989380,363.978668 
	C625.989380,363.978668 626.003113,363.997498 626.239990,363.845581 
	C626.659363,363.152222 626.841919,362.610748 627.024475,362.069275 
	C627.024475,362.069275 626.989685,362.023407 627.239258,361.888489 
	C627.638550,361.452026 627.788147,361.150421 627.937744,360.848816 
	C627.937744,360.848816 627.904297,360.946655 628.226685,360.912262 
	C629.025696,359.907135 629.502319,358.936432 629.978943,357.965729 
	C629.978943,357.965729 630.001770,357.999451 630.210693,357.884247 
	C630.606689,357.494995 630.793701,357.220978 630.980713,356.946960 
	C630.980713,356.946960 630.999939,357.000031 631.205811,356.880859 
	C631.601624,356.482544 631.791565,356.203400 631.981506,355.924255 
	C632.031799,355.579010 632.207275,355.317902 633.041138,355.038513 
	C634.037476,354.376648 634.500549,353.817108 634.963623,353.257568 
z"/>
<path fill="#76C302" opacity="1.000000" stroke="none" 
	d="
M788.807739,450.637238 
	C786.610657,448.014160 783.545471,447.939789 780.199402,447.945129 
	C732.581543,448.021057 684.963440,448.000977 637.345459,447.990479 
	C634.948792,447.989929 632.552185,447.865845 630.495972,447.402863 
	C632.493103,446.899109 634.149780,446.791779 636.181274,446.812042 
	C638.071655,446.793793 639.587219,446.647919 641.562256,446.465790 
	C667.332703,446.380768 692.643677,446.271454 717.954590,446.301025 
	C740.930298,446.327881 763.905823,446.505859 787.015564,446.760315 
	C787.387329,447.016693 787.633728,447.105927 787.888794,447.171112 
	C788.197205,448.217499 788.505615,449.263885 788.807739,450.637238 
z"/>
<path fill="#0EA0F0" opacity="1.000000" stroke="none" 
	d="
M484.777344,269.136169 
	C483.545898,269.344086 482.158142,269.173615 479.894501,269.019623 
	C445.028809,269.072571 411.038940,269.109100 377.049103,269.145630 
	C375.586304,269.071899 374.123505,268.998230 372.215515,268.872803 
	C373.258087,267.872925 374.745819,266.924744 376.551147,265.882263 
	C378.721832,266.191895 380.574066,266.943665 382.428040,266.947968 
	C413.293884,267.019836 444.160187,266.946594 475.025696,267.074310 
	C478.226379,267.087555 481.422668,268.170959 484.777344,269.136169 
z"/>
<path fill="#09A5FE" opacity="1.000000" stroke="none" 
	d="
M786.881470,446.617218 
	C763.905823,446.505859 740.930298,446.327881 717.954590,446.301025 
	C692.643677,446.271454 667.332703,446.380768 641.198853,446.302490 
	C638.852783,446.345093 637.329651,446.514801 635.806519,446.684448 
	C634.149780,446.791779 632.493103,446.899109 630.427124,447.082031 
	C629.275330,447.170563 628.532654,447.183472 627.417725,447.230896 
	C629.632202,446.513611 632.217407,445.112488 634.806091,445.106018 
	C685.487488,444.979248 736.169312,445.014801 787.296021,445.035461 
	C787.785645,445.222809 787.830322,445.391937 787.603394,445.902710 
	C787.181702,446.368683 787.031616,446.492950 786.881470,446.617218 
z"/>
<path fill="#76C302" opacity="1.000000" stroke="none" 
	d="
M672.422485,279.523651 
	C671.641418,281.551056 670.148254,283.557617 670.113342,285.589203 
	C669.894653,298.322357 670.300903,311.072601 669.813538,323.790833 
	C669.670471,327.524567 667.297241,331.172852 665.601562,334.912964 
	C665.777710,333.846558 666.298401,332.727539 666.890686,331.054718 
	C666.962280,330.500916 666.874451,330.029022 666.874451,330.029022 
	C667.249512,329.224030 667.624573,328.419037 668.001343,327.327332 
	C668.002991,327.040649 668.142639,327.045319 668.386841,326.738525 
	C668.502563,323.621246 668.374023,320.810699 668.200867,317.533691 
	C668.167175,304.040466 668.178101,291.013733 668.189026,277.987000 
	C668.593262,277.996826 668.997559,278.006653 669.762268,278.398041 
	C670.851318,279.019165 671.579834,279.258698 672.308411,279.498230 
	C672.308411,279.498230 672.384644,279.514404 672.422485,279.523651 
z"/>
<path fill="#09A2F6" opacity="1.000000" stroke="none" 
	d="
M668.130676,277.746246 
	C668.178101,291.013733 668.167175,304.040466 668.104980,317.976440 
	C668.083374,321.605530 668.112976,324.325439 668.142639,327.045319 
	C668.142639,327.045319 668.002991,327.040649 667.953125,326.991699 
	C667.614014,326.372559 667.070251,325.801270 667.072693,325.232330 
	C667.141418,309.356781 667.265503,293.481476 667.674438,277.313568 
	C667.968506,277.021027 668.072327,277.505493 668.130676,277.746246 
z"/>
<path fill="#76C302" opacity="1.000000" stroke="none" 
	d="
M774.016113,413.864075 
	C774.776672,413.011932 775.537231,412.159790 776.576172,411.176788 
	C777.237061,411.791412 777.619629,412.536896 777.612305,413.627472 
	C776.153625,413.936401 775.084900,413.900238 774.016113,413.864075 
z"/>
<path fill="#09A5FE" opacity="1.000000" stroke="none" 
	d="
M773.626282,413.940582 
	C775.084900,413.900238 776.153625,413.936401 777.624146,413.944397 
	C778.069763,414.078888 778.113586,414.241608 778.231445,414.646057 
	C775.755920,414.821777 773.206421,414.755768 770.360962,414.425049 
	C771.122131,414.112640 772.179260,414.064850 773.626282,413.940582 
z"/>
<path fill="#6AC01A" opacity="1.000000" stroke="none" 
	d="
M672.153625,279.258423 
	C671.579834,279.258698 670.851318,279.019165 670.061523,278.447083 
	C670.666504,278.415924 671.332642,278.717285 672.153625,279.258423 
z"/>
<path fill="#47B76E" opacity="1.000000" stroke="none" 
	d="
M787.015564,446.760315 
	C787.031616,446.492950 787.181702,446.368683 787.612610,446.164917 
	C787.911194,446.266144 787.928894,446.446838 787.917725,446.899292 
	C787.633728,447.105927 787.387329,447.016693 787.015564,446.760315 
z"/>
<path fill="#09A2F6" opacity="1.000000" stroke="none" 
	d="
M681.562622,574.366943 
	C681.959106,574.286072 682.060425,574.528015 682.298828,575.265625 
	C682.556519,578.158691 682.649231,580.567749 682.552979,583.140381 
	C682.494507,583.876953 682.624939,584.449890 682.808777,585.476501 
	C682.827148,589.281738 682.792114,592.633423 682.535400,596.242554 
	C682.460449,598.005005 682.607117,599.509949 682.802246,601.479980 
	C682.815186,609.618347 682.779602,617.291443 682.592407,625.064209 
	C682.393372,625.274719 682.275818,625.423584 682.311523,625.489258 
	C682.419739,625.688538 682.587219,625.855652 682.786865,626.466797 
	C682.809265,628.926880 682.776428,630.955444 682.528564,633.218506 
	C682.454346,634.640259 682.595154,635.827576 682.786621,637.479736 
	C682.951721,655.944214 683.066101,673.943787 683.180481,691.943298 
	C682.452759,690.612671 681.091858,689.283142 681.089478,687.951233 
	C681.023132,650.352051 681.093689,612.752625 681.148438,575.153198 
	C681.148682,574.994751 681.244202,574.836426 681.562622,574.366943 
z"/>
<path fill="#8AD000" opacity="1.000000" stroke="none" 
	d="
M683.376343,691.966553 
	C683.066101,673.943787 682.951721,655.944214 682.889404,637.084473 
	C682.875549,635.144165 682.809509,634.064148 682.743530,632.984070 
	C682.776428,630.955444 682.809265,628.926880 682.864502,626.199951 
	C682.839294,625.322571 682.791687,625.143616 682.744019,624.964600 
	C682.779602,617.291443 682.815186,609.618347 682.904663,601.069092 
	C682.891418,598.790283 682.824219,597.387695 682.757080,595.985046 
	C682.792114,592.633423 682.827148,589.281738 682.905029,585.139404 
	C682.879272,583.891418 682.810608,583.434143 682.741943,582.976807 
	C682.649231,580.567749 682.556519,578.158691 682.439819,575.403381 
	C682.944702,576.811096 683.931091,578.564026 683.935059,580.319153 
	C684.018616,617.251587 683.991272,654.184326 683.973022,691.588867 
	C683.960266,692.060730 683.572205,691.989868 683.376343,691.966553 
z"/>
<path fill="#0EA0F0" opacity="1.000000" stroke="none" 
	d="
M589.598633,479.074158 
	C588.651062,486.931549 587.118408,494.827271 586.148010,502.791443 
	C585.778625,505.822968 586.700439,509.011810 586.961304,512.559937 
	C586.259521,512.005981 585.097778,511.028900 585.083130,510.034973 
	C584.934570,499.948639 584.077087,489.762482 588.193542,480.121277 
	C588.365295,479.718903 588.881714,479.463562 589.598633,479.074158 
z"/>
<path fill="#76C302" opacity="1.000000" stroke="none" 
	d="
M625.721863,364.214722 
	C625.541931,366.213959 625.326843,368.527466 624.605347,370.670471 
	C622.010986,378.376343 622.730835,385.800385 626.019653,393.113861 
	C626.479065,394.135437 626.640564,395.291016 626.887085,396.783173 
	C619.473206,386.562378 620.684204,375.581604 625.721863,364.214722 
z"/>
<path fill="#09A5FE" opacity="1.000000" stroke="none" 
	d="
M658.960144,413.873352 
	C660.671265,413.935577 662.382385,413.997772 664.519165,414.108337 
	C661.903320,414.769287 658.861816,415.381836 655.410156,415.997192 
	C655.000000,416.000000 655.003540,416.002899 655.003540,416.002899 
	C653.156921,415.504700 651.310242,415.006531 649.484680,414.241089 
	C649.505737,413.973785 649.981995,413.849762 649.981995,413.849762 
	C651.066833,413.892578 652.151611,413.935364 654.045166,413.992523 
	C656.222656,413.962372 657.591370,413.917847 658.960144,413.873352 
z"/>
<path fill="#0EA0F0" opacity="1.000000" stroke="none" 
	d="
M586.906738,514.221680 
	C587.837097,516.038147 588.634033,518.170715 589.518799,520.639282 
	C588.662231,518.829407 587.717712,516.683655 586.906738,514.221680 
z"/>
<path fill="#76C302" opacity="1.000000" stroke="none" 
	d="
M649.934814,413.478760 
	C649.981995,413.849762 649.505737,413.973785 649.261414,413.944763 
	C647.153870,413.121857 645.290710,412.327942 643.194458,411.278015 
	C645.270203,411.717194 647.578979,412.412445 649.934814,413.478760 
z"/>
<path fill="#76C302" opacity="1.000000" stroke="none" 
	d="
M640.663574,350.024323 
	C639.486084,350.975647 637.965576,351.966431 636.052246,352.933044 
	C637.213135,351.960571 638.766846,351.012177 640.663574,350.024323 
z"/>
<path fill="#09A2F6" opacity="1.000000" stroke="none" 
	d="
M683.908936,693.203369 
	C684.580566,694.376831 685.124023,695.861389 685.764160,697.688782 
	C685.167480,696.525940 684.474060,695.020142 683.908936,693.203369 
z"/>
<path fill="#76C302" opacity="1.000000" stroke="none" 
	d="
M637.959961,408.484558 
	C639.440918,408.920868 641.070984,409.657715 642.844421,410.716064 
	C641.361572,410.286743 639.735291,409.535919 637.959961,408.484558 
z"/>
<path fill="#0EA0F0" opacity="1.000000" stroke="none" 
	d="
M591.898499,474.953491 
	C591.616882,476.105621 591.135864,477.033020 590.371155,478.110199 
	C590.624634,477.082886 591.161865,475.905823 591.898499,474.953491 
z"/>
<path fill="#76C302" opacity="1.000000" stroke="none" 
	d="
M629.708130,358.120972 
	C629.502319,358.936432 629.025696,359.907135 628.183472,360.883972 
	C628.357605,360.018799 628.897461,359.147491 629.708130,358.120972 
z"/>
<path fill="#76C302" opacity="1.000000" stroke="none" 
	d="
M626.807312,397.427826 
	C627.479431,397.900421 628.188843,398.697540 628.859375,399.845428 
	C628.161804,399.381561 627.503235,398.566956 626.807312,397.427826 
z"/>
<path fill="#09A5FE" opacity="1.000000" stroke="none" 
	d="
M693.269531,414.396606 
	C694.094177,414.130646 695.131287,414.099274 696.555054,414.115845 
	C695.788452,414.319580 694.635254,414.475403 693.269531,414.396606 
z"/>
<path fill="#09A5FE" opacity="1.000000" stroke="none" 
	d="
M677.268799,414.396912 
	C678.093994,414.130463 679.131226,414.099274 680.555237,414.115417 
	C679.788330,414.319244 678.634583,414.475708 677.268799,414.396912 
z"/>
<path fill="#76C302" opacity="1.000000" stroke="none" 
	d="
M634.935913,406.466827 
	C635.776245,406.631531 636.747375,407.093414 637.804688,407.895630 
	C636.949524,407.745331 636.008057,407.254669 634.935913,406.466827 
z"/>
<path fill="#09A5FE" opacity="1.000000" stroke="none" 
	d="
M706.234497,414.384155 
	C706.776794,414.128357 707.500977,414.097778 708.585083,414.114624 
	C708.102112,414.311188 707.259216,414.460266 706.234497,414.384155 
z"/>
<path fill="#76C302" opacity="1.000000" stroke="none" 
	d="
M634.705688,353.345947 
	C634.500549,353.817108 634.037476,354.376648 633.272095,354.964050 
	C633.462402,354.472717 633.955017,353.953522 634.705688,353.345947 
z"/>
<path fill="#76C302" opacity="1.000000" stroke="none" 
	d="
M626.822510,362.266174 
	C626.841919,362.610748 626.659363,363.152222 626.228821,363.844574 
	C626.194092,363.484650 626.407349,362.973846 626.822510,362.266174 
z"/>
<path fill="#76C302" opacity="1.000000" stroke="none" 
	d="
M633.141052,405.269928 
	C633.552856,405.217163 634.119385,405.422791 634.805847,405.917969 
	C634.382446,405.981110 633.839111,405.754730 633.141052,405.269928 
z"/>
<path fill="#76C302" opacity="1.000000" stroke="none" 
	d="
M630.676392,402.478577 
	C631.111450,402.585419 631.520508,403.000671 631.947388,403.736816 
	C631.526917,403.634125 631.088684,403.210541 630.676392,402.478577 
z"/>
<path fill="#09A2F6" opacity="1.000000" stroke="none" 
	d="
M666.718750,330.107727 
	C666.874451,330.029022 666.962280,330.500916 666.904541,330.733887 
	C666.693787,330.806274 666.524292,330.657043 666.400452,330.476440 
	C666.372620,330.436005 666.504578,330.286011 666.718750,330.107727 
z"/>
<path fill="#76C302" opacity="1.000000" stroke="none" 
	d="
M631.742798,356.025452 
	C631.791565,356.203400 631.601624,356.482544 631.179016,356.871887 
	C631.132202,356.696930 631.318115,356.411804 631.742798,356.025452 
z"/>
<path fill="#09A5FE" opacity="1.000000" stroke="none" 
	d="
M654.998535,415.998108 
	C654.907715,416.034515 654.818298,416.072784 654.866211,416.057007 
	C655.003540,416.002899 655.000000,416.000000 654.998535,415.998108 
z"/>
<path fill="#76C302" opacity="1.000000" stroke="none" 
	d="
M630.745178,357.047546 
	C630.793701,357.220978 630.606689,357.494995 630.191528,357.877625 
	C630.145447,357.706848 630.327515,357.427490 630.745178,357.047546 
z"/>
<path fill="#09A5FE" opacity="1.000000" stroke="none" 
	d="
M727.123901,414.311890 
	C727.043579,414.164093 727.499329,414.087189 727.726990,414.126831 
	C727.704529,414.264191 727.454407,414.361938 727.123901,414.311890 
z"/>
<path fill="#09A5FE" opacity="1.000000" stroke="none" 
	d="
M720.123047,414.311005 
	C720.042786,414.162445 720.499573,414.086090 720.727783,414.125488 
	C720.705078,414.263092 720.454224,414.361328 720.123047,414.311005 
z"/>
<path fill="#76C302" opacity="1.000000" stroke="none" 
	d="
M768.270264,413.872559 
	C768.292358,413.735046 768.542358,413.636597 768.873169,413.685425 
	C768.953979,413.832672 768.498230,413.911682 768.270264,413.872559 
z"/>
<path fill="#76C302" opacity="1.000000" stroke="none" 
	d="
M632.031128,404.264404 
	C632.215027,404.204010 632.490906,404.384735 632.878906,404.790192 
	C632.701721,404.845123 632.412415,404.675323 632.031128,404.264404 
z"/>
<path fill="#76C302" opacity="1.000000" stroke="none" 
	d="
M629.778442,401.467987 
	C630.079712,401.328400 630.400940,401.501038 630.784912,401.953003 
	C630.497925,402.081635 630.148193,401.930939 629.778442,401.467987 
z"/>
<path fill="#76C302" opacity="1.000000" stroke="none" 
	d="
M628.828125,400.408325 
	C629.095886,400.294647 629.411072,400.479767 629.796570,400.940002 
	C629.536438,401.045776 629.205994,400.876434 628.828125,400.408325 
z"/>
<path fill="#76C302" opacity="1.000000" stroke="none" 
	d="
M627.684509,360.942078 
	C627.788147,361.150421 627.638550,361.452026 627.267212,361.881531 
	C627.174133,361.684784 627.302734,361.360046 627.684509,360.942078 
z"/>
<path fill="#8AD000" opacity="1.000000" stroke="none" 
	d="
M377.355469,269.420410 
	C411.038940,269.109100 445.028809,269.072571 479.480225,269.094543 
	C478.694946,269.436920 477.448395,269.966980 476.201111,269.968719 
	C444.004486,270.013397 411.807831,270.004852 379.611145,269.989441 
	C378.961334,269.989105 378.311615,269.797516 377.355469,269.420410 
z"/>
<path fill="#76C302" opacity="1.000000" stroke="none" 
	d="
M658.727356,413.624084 
	C657.591370,413.917847 656.222656,413.962372 654.449280,413.932251 
	C655.527954,413.696716 657.011292,413.535767 658.727356,413.624084 
z"/>
<path fill="#47B76E" opacity="1.000000" stroke="none" 
	d="
M636.181274,446.812073 
	C637.329651,446.514801 638.852783,446.345093 640.739380,446.338745 
	C639.587219,446.647919 638.071655,446.793793 636.181274,446.812073 
z"/>
<path fill="#68C336" opacity="1.000000" stroke="none" 
	d="
M668.386841,326.738525 
	C668.112976,324.325439 668.083374,321.605530 668.149658,318.442932 
	C668.374023,320.810699 668.502563,323.621246 668.386841,326.738525 
z"/>
<path fill="#21A7BC" opacity="1.000000" stroke="none" 
	d="
M682.535400,596.242554 
	C682.824219,597.387695 682.891418,598.790283 682.856201,600.603882 
	C682.607117,599.509949 682.460449,598.005005 682.535400,596.242554 
z"/>
<path fill="#21A7BC" opacity="1.000000" stroke="none" 
	d="
M682.528564,633.218506 
	C682.809509,634.064148 682.875549,635.144165 682.838745,636.619507 
	C682.595154,635.827576 682.454346,634.640259 682.528564,633.218506 
z"/>
<path fill="#21A7BC" opacity="1.000000" stroke="none" 
	d="
M682.553040,583.140381 
	C682.810608,583.434143 682.879272,583.891418 682.851685,584.685791 
	C682.624939,584.449890 682.494507,583.876953 682.553040,583.140381 
z"/>
<path fill="#21A7BC" opacity="1.000000" stroke="none" 
	d="
M682.592407,625.064209 
	C682.791687,625.143616 682.839294,625.322571 682.809326,625.768433 
	C682.587219,625.855652 682.419739,625.688538 682.311523,625.489258 
	C682.275818,625.423584 682.393372,625.274719 682.592407,625.064209 
z"/>
</svg>